static_grf.mot
version=1
nRows=17
nColumns 19
inDegrees=yes
endheader
time	1_ground_force_vx	1_ground_force_vy	1_ground_force_vz	1_ground_force_px	1_ground_force_py	1_ground_force_pz	1_ground_torque_x	1_ground_torque_y	1_ground_torque_z	2_ground_force_vx	2_ground_force_vy	2_ground_force_vz	2_ground_force_px	2_ground_force_py	2_ground_force_pz	2_ground_torque_x	2_ground_torque_y	2_ground_torque_z
            1.002500	           -1.435186	          403.929339	          -29.630822	           -0.291248	            0.006084	           -0.375441	           -0.010406	            2.928753	           -0.214843	           -4.440946	          440.239460	           15.275250	           -0.302370	            0.005452	           -0.714371	           -0.016248	            1.610731	            0.055889
            1.003000	           -1.526058	          403.207079	          -29.358551	           -0.291462	            0.006085	           -0.375675	           -0.011041	            2.917293	           -0.212416	           -4.396090	          440.792051	           15.277201	           -0.302195	            0.005452	           -0.714434	           -0.015936	            1.597905	            0.055381
            1.003500	           -1.434815	          405.009950	          -29.396905	           -0.291096	            0.006083	           -0.375049	           -0.010412	            2.939002	           -0.213322	           -4.441008	          440.239962	           15.134466	           -0.302413	            0.005451	           -0.714371	           -0.016533	            1.638912	            0.056342
            1.004000	           -1.618381	          404.830073	          -29.488935	           -0.291244	            0.006084	           -0.375346	           -0.011514	            2.880196	           -0.209801	           -4.252299	          439.872525	           15.086144	           -0.302085	            0.005452	           -0.714184	           -0.015707	            1.624794	            0.055725
            1.004500	           -1.755584	          404.288826	          -29.399201	           -0.291329	            0.006084	           -0.375314	           -0.012705	            2.925712	           -0.212753	           -4.349322	          440.792890	           15.089469	           -0.301854	            0.005454	           -0.714562	           -0.016163	            1.638056	            0.056075
            1.005000	           -1.434779	          403.568218	          -29.494801	           -0.291205	            0.006084	           -0.375348	           -0.010478	            2.947296	           -0.215403	           -4.255622	          440.793228	           15.089429	           -0.302021	            0.005454	           -0.714603	           -0.015228	            1.577281	            0.053994
            1.005500	           -1.847042	          404.288415	          -29.307261	           -0.291442	            0.006084	           -0.375352	           -0.013139	            2.875830	           -0.208472	           -4.585483	          441.343858	           15.279252	           -0.302106	            0.005453	           -0.714627	           -0.016350	            1.573627	            0.054479
            1.006000	           -1.572161	          403.387760	          -29.449376	           -0.291392	            0.006084	           -0.375352	           -0.011362	            2.915403	           -0.212839	           -4.349240	          440.792221	           15.277181	           -0.302064	            0.005454	           -0.714774	           -0.015347	            1.555375	            0.053907
            1.006500	           -1.664174	          403.928902	          -29.538542	           -0.291416	            0.006084	           -0.375388	           -0.012029	            2.919605	           -0.213505	           -4.115093	          440.793903	           15.042441	           -0.302189	            0.005453	           -0.714602	           -0.014402	            1.542664	            0.052645
            1.007000	           -1.801864	          403.568737	          -29.631458	           -0.291117	            0.006085	           -0.375508	           -0.012819	            2.871040	           -0.210802	           -4.487131	          440.055150	           15.274613	           -0.302397	            0.005451	           -0.714150	           -0.016195	            1.588223	            0.055128
            1.007500	           -1.481371	          403.929920	          -29.768276	           -0.291243	            0.006084	           -0.375270	           -0.010886	            2.968245	           -0.218750	           -4.491078	          441.159721	           15.372412	           -0.302267	            0.005453	           -0.714577	           -0.016492	            1.620001	            0.056450
            1.008000	           -1.709984	          403.748658	          -29.539201	           -0.291209	            0.006085	           -0.375536	           -0.012470	            2.944357	           -0.215416	           -4.675819	          440.422420	           15.369863	           -0.302169	            0.005453	           -0.714508	           -0.016951	            1.596623	            0.055719
            1.008500	           -1.663979	          404.108805	          -29.446057	           -0.291158	            0.006084	           -0.375325	           -0.012043	            2.924826	           -0.213122	           -4.256307	          440.977536	           15.043158	           -0.302033	            0.005453	           -0.714525	           -0.015073	            1.561698	            0.053275
            1.009000	           -1.847351	          404.108769	          -29.445602	           -0.291323	            0.006084	           -0.375281	           -0.013209	            2.889487	           -0.210544	           -4.304487	          441.345710	           15.044492	           -0.301807	            0.005455	           -0.714796	           -0.015585	            1.597949	            0.054471
            1.009500	           -1.435318	          404.650402	          -29.627731	           -0.291089	            0.006083	           -0.375041	           -0.010569	            2.979772	           -0.218173	           -4.443686	          440.976692	           15.090166	           -0.302080	            0.005453	           -0.714485	           -0.016305	            1.618025	            0.055369
            1.010000	           -1.664078	          404.649571	          -29.443738	           -0.291175	            0.006083	           -0.375071	           -0.011994	            2.916523	           -0.212217	           -4.394884	          440.424774	           14.994318	           -0.302210	            0.005453	           -0.714591	           -0.016135	            1.616960	            0.055050
            1.010500	           -1.343225	          404.289298	          -29.491936	           -0.291073	            0.006082	           -0.374993	           -0.010124	            3.047137	           -0.222281	           -4.442981	          440.792217	           15.183365	           -0.301978	            0.005454	           -0.714605	           -0.015777	            1.565259	            0.053916
